PathFileType	4	(X/Y/Z)	C:/Users/beibeiliu/ov580/test_trc\sequence.38_training_dense_left.trc
DataRate	CameraRate	NumFrames	NumMarkers	Units	OrigDataRate	OrigDataStartFrame	OrigNumFrames
120	120	11	19	mm	120	118	312
Frame#	Time	ThumbCMC			ThumbMCP			ThumbIP			ThumbTip			IndexMCP			IndexPIP			IndexTip			MiddleMCP			MiddlePIP			MiddleTip			RingMCP			RingPIP			RingTip			PinkyMCP			PinkyPIP			PinkyTip			BackHand1			BackHand2			BackHand3	
		X0	Y0	Z0	X1	Y1	Z1	X2	Y2	Z2	X3	Y3	Z3	X4	Y4	Z4	X5	Y5	Z5	X6	Y6	Z6	X7	Y7	Z7	X8	Y8	Z8	X9	Y9	Z9	X10	Y10	Z10	X11	Y11	Z11	X12	Y12	Z12	X13	Y13	Z13	X14	Y14	Z14	X15	Y15	Z15	X16	Y16	Z16	X17	Y17	Z17	X18	Y18	Z18	
117	0.975	-181.475	-15.3183	24.4968	-167.126	-25.9485	-2.45351	-167.975	-27.9769	-22.2133	-173.947	-30.1572	-44.2355	-190.197	-18.5375	-45.8793	-198.252	-44.956	-46.4632	-201.25	-48.1746	-16.9697	-209.349	-14.4261	-47.3986	-220.121	-42.2166	-44.9474	-219.472	-42.6437	-13.4869	-223.692	-14.3105	-41.9041	-227.872	-38.1593	-36.7082	-224.342	-35.0903	-6.76321	-241.97	-5.72271	-32.2367	-241.689	-31.4201	-29.185	-229.015	-32.8545	-4.74694	-216.111	17.9649	-4.86168	-214.856	19.1249	27.0909	-193.943	12.7961	10.6034	
118	0.983333	-183.622	-14.6067	20.7912	-170.476	-26.7806	-4.48489	-171.213	-28.5129	-25.5318	-171.038	-35.9296	-47.7259	-186.709	-18.2509	-46.3069	-198.039	-45.1034	-46.3268	-201.447	-47.1467	-18.4013	-206.416	-14.8009	-47.5723	-215.531	-42.738	-46.2711	-216.053	-41.3931	-12.7545	-227.688	-14.74	-44.6466	-231.006	-37.9923	-36.1847	-224.262	-34.1639	-5.40127	-240.684	-5.64288	-33.219	-241.984	-30.2184	-31.5436	-227.972	-32.4925	-6.76083	-217.727	20.131	-2.20619	-216.837	20.9184	26.1319	-190.422	10.6854	13.9676	
119	0.991667	-183.601	-15.7785	19.2278	-170.394	-30.5392	-4.76712	-170.125	-34.0972	-27.8935	-175.036	-38.9996	-48.7368	-184.395	-16.8293	-44.0098	-196.719	-42.8409	-48.8927	-200.78	-45.9666	-17.626	-208.172	-14.1897	-49.9835	-217.856	-43.4364	-43.7133	-214.349	-39.5812	-10.7857	-224.961	-12.1064	-45.5752	-227.096	-37.8994	-36.6135	-225.239	-34.8968	-8.90142	-238.514	-5.67151	-34.8509	-240.697	-29.6038	-30.4955	-226.703	-29.1114	-7.05027	-215.766	20.97	-5.8663	-217.082	21.4818	23.2003	-192.325	13.1884	13.536	
120	1	-180.545	-17.4231	21.1507	-175.683	-31.5351	-1.56154	-174.86	-37.2296	-26.0836	-177.261	-42.8831	-44.2118	-186.372	-16.695	-47.6465	-197.95	-39.7714	-49.578	-200.743	-46.6857	-19.8035	-206.942	-10.11	-47.991	-216.088	-40.578	-45.6463	-216.198	-38.9897	-15.6638	-220.963	-7.3846	-43.0947	-227.426	-34.0267	-39.5497	-224.702	-32.0652	-7.93765	-235.79	-6.05199	-36.0286	-235.826	-29.435	-30.1445	-229.094	-31.1038	-9.35937	-215.823	21.6878	-1.38759	-216.278	21.3478	24.5269	-187.33	11.295	9.60663	
121	1.00833	-178.941	-18.1279	18.9479	-175.792	-34.5259	-1.56665	-174.568	-40.4754	-26.013	-180.882	-46.3919	-50.5802	-187.296	-14.5582	-47.3505	-198.12	-38.1243	-50.4153	-203.968	-40.9216	-18.7249	-206.904	-12.5101	-51.4511	-212.894	-38.2257	-49.8391	-217.605	-38.892	-16.8965	-225.537	-6.79577	-43.8042	-230.97	-33.2594	-38.1828	-225.54	-32.0901	-10.2483	-238.522	-1.60914	-34.585	-239.864	-27.2744	-31.865	-230.401	-29.0374	-8.14652	-213.658	20.4722	-4.66177	-215.635	21.6914	26.2513	-188.218	13.7283	11.8012	
122	1.01667	-182.741	-15.7156	19.5146	-176.69	-33.5938	-4.95622	-174.395	-44.4906	-28.876	-184.105	-49.0278	-49.874	-185.281	-13.7141	-49.5535	-195.123	-36.1685	-52.1802	-199.555	-43.2916	-23.5508	-205.797	-9.26233	-51.6679	-213.07	-37.4996	-49.8453	-211.376	-38.7128	-16.8402	-225.48	-8.04947	-45.9228	-229.453	-34.1643	-38.4014	-224.98	-32.5968	-12.1144	-239.797	-5.26617	-37.4534	-237.982	-26.9173	-32.5221	-225.041	-26.9183	-9.62747	-216.599	22.0099	-5.95858	-214.495	23.8938	25.3899	-187.31	13.1683	11.3461	
123	1.025	-177.816	-16.6445	15.5884	-176.335	-35.6861	-8.25713	-178.8	-44.1782	-29.0269	-187.841	-53.8277	-47.4692	-181.033	-10.772	-47.914	-195.32	-36.3065	-52.5591	-197.108	-38.9427	-21.3652	-203.381	-8.37311	-52.2692	-214.928	-35.3143	-51.1439	-210.854	-39.0294	-19.9554	-220.685	-4.73877	-44.4516	-227.311	-32.7	-40.2014	-221.071	-31.0599	-12.1952	-236.817	-1.08638	-34.684	-234.808	-26.4435	-33.1764	-228.367	-29.6507	-9.89676	-216.733	22.3488	-1.46214	-212.141	22.7575	22.4713	-190.778	16.4208	12.344	
124	1.03333	-179.776	-15.1403	14.4044	-180.811	-34.789	-7.27933	-181.018	-47.0908	-30.1739	-194.11	-53.086	-46.9156	-184.141	-7.1104	-48.6308	-194.84	-30.9158	-56.348	-198.465	-38.7551	-26.4214	-201.372	-6.02606	-52.3858	-213.979	-34.6615	-52.9516	-211.541	-39.3305	-22.281	-222.776	-3.14897	-45.91	-224.975	-30.3993	-45.1554	-218.23	-30.5749	-14.3825	-239.132	-0.299455	-35.2896	-235.119	-25.9941	-33.9063	-226.102	-28.1741	-9.90706	-212.84	22.7054	-5.3345	-214.407	24.8875	24.8299	-190.148	15.2435	11.782	
125	1.04167	-179.38	-14.9766	14.5802	-180.123	-37.6584	-5.67813	-184.975	-47.3265	-28.0296	-198.569	-51.6153	-47.5353	-181.792	-5.4443	-47.8483	-190.767	-31.0778	-58.438	-197.812	-39.6714	-28.2187	-202.436	-6.67129	-55.7174	-213.205	-32.8917	-55.5632	-213.613	-38.2456	-23.2149	-223.134	-2.35722	-47.986	-222.561	-32.0769	-43.993	-222.404	-32.2953	-15.9794	-237.829	0.578195	-35.8559	-234.921	-25.3325	-37.269	-228.015	-29.4064	-13.0799	-216.363	23.7375	-5.02914	-213.859	25.2015	21.3345	-189.657	16.2488	10.3652	
126	1.05	-180.64	-16.3492	14.4187	-183.454	-35.5839	-5.77924	-187.491	-46.7954	-32.1825	-202.465	-50.1292	-49.1104	-182.131	-6.73877	-52.21	-191.039	-30.6302	-58.7314	-199.907	-38.1913	-27.937	-203.729	-1.26275	-52.0109	-209.187	-30.2283	-60.4052	-212.643	-40.9536	-28.9533	-223.445	-3.44428	-51.3567	-224.964	-28.2576	-47.1376	-222.226	-33.6648	-21.2151	-239.446	2.60557	-37.3597	-234.782	-21.6494	-41.5058	-228.121	-28.4042	-15.5929	-214.514	25.1224	-6.58711	-215.175	22.9491	25.2404	-191.243	18.7611	7.94558	
127	1.05833	-180.141	-14.659	14.3551	-181.481	-38.6569	-7.54016	-189.679	-43.8571	-30.1014	-205.014	-49.314	-53.3416	-184.572	-4.39971	-51.7147	-190.697	-28.1934	-59.8314	-199.097	-38.7601	-29.6067	-200.451	-3.66951	-56.047	-210.754	-30.0687	-59.1113	-213.82	-38.5448	-27.4087	-221.062	-1.32289	-50.6065	-226.194	-26.0671	-49.4818	-219.102	-32.8086	-20.2675	-239.253	3.136	-38.0128	-239.317	-22.1008	-40.9059	-227.085	-28.5979	-16.8689	-213.871	24.4578	-1.62073	-213.813	26.1073	20.8924	-191.923	19.6704	6.99789	
